<?xml version="1.0" encoding="utf-8"?>
<!-- Generator: Adobe Illustrator 19.0.0, SVG Export Plug-In . SVG Version: 6.00 Build 0)  -->
<svg version="1.1" id="Capa_1" xmlns="http://www.w3.org/2000/svg" xmlns:xlink="http://www.w3.org/1999/xlink" x="0px" y="0px"
	 viewBox="0 120 595.3 601.9" style="enable-background:new 0 120 595.3 601.9;" xml:space="preserve">
<style type="text/css">
	.st0{fill:#E41C54;}
</style>
<g>
	<g>
		<path class="st0" d="M530,181H66c-4.4,0-8,3.6-8,8v32v216v8v80c0,4.4,3.6,8,8,8h24v120c0,4.4,3.6,8,8,8h40h40c4.4,0,8-3.6,8-8V533
			h224v120c0,4.4,3.6,8,8,8h40h40c4.4,0,8-3.6,8-8V533h24c4.4,0,8-3.6,8-8v-80v-8V221v-32C538,184.6,534.4,181,530,181z M170,437v8
			v16v184h-24V525h-16v120h-24V437H90v80H74v-72v-8c0-13.2,10.8-24,24-24h80c13.2,0,24,10.8,24,24v24c0,4.4,3.6,8,8,8h40v16h-40
			c-13.2,0-24-10.8-24-24v-16v-8H170z M106,365c0-17.6,14.4-32,32-32s32,14.4,32,32c0,17.6-14.4,32-32,32S106,382.6,106,365z
			 M522,445v72h-16v-80h-16v208h-24V525h-16v120h-24V437c0-4.4-3.6-8-8-8h-48c-13.2,0-24-10.8-24-24v-48h16v48c0,4.4,3.6,8,8,8h128
			c13.2,0,24,10.8,24,24V445z M426,365c0-17.6,14.4-32,32-32s32,14.4,32,32c0,17.6-14.4,32-32,32S426,382.6,426,365z M522,405.2
			c-6.7-5.1-15-8.2-24-8.2h-4.3c7.6-8.5,12.3-19.7,12.3-32c0-26.5-21.5-48-48-48s-48,21.5-48,48c0,12.3,4.7,23.5,12.3,32H378v-48
			c0-4.4-3.6-8-8-8h-32c-4.4,0-8,3.6-8,8v56c0,22.1,17.9,40,40,40h40v72H186v-24.2c6.7,5.1,15,8.2,24,8.2h48c4.4,0,8-3.6,8-8v-32
			c0-4.4-3.6-8-8-8h-40v-16c0-22.1-17.9-40-40-40h-4.3c7.6-8.5,12.3-19.7,12.3-32c0-26.5-21.5-48-48-48s-48,21.5-48,48
			c0,12.3,4.7,23.5,12.3,32H98c-9,0-17.3,3.1-24,8.2V229h448V405.2z M522,213H74v-16h448V213z"/>
	</g>
</g>
<g>
	<g>
		<path class="st0" d="M458,245c-13.2,0-24,10.8-24,24c0,0.3,0.1,0.6,0.1,0.9l-38.2,15.3c-4.4-5-10.8-8.2-17.9-8.2
			c-7.9,0-14.9,3.9-19.3,9.9l-36.8-11c-0.6-12.7-11.1-22.8-23.9-22.8c-13.2,0-24,10.8-24,24c0,2.2,0.4,4.3,1,6.4l-43.1,30.1
			c-3.9-2.8-8.7-4.5-13.9-4.5c-4.6,0-8.9,1.4-12.6,3.7l-44.8-35.8c0.9-2.5,1.4-5.1,1.4-7.8c0-13.2-10.8-24-24-24s-24,10.8-24,24
			c0,13.2,10.8,24,24,24c4.6,0,8.9-1.4,12.6-3.7l44.8,35.8c-0.9,2.5-1.4,5.1-1.4,7.8c0,13.2,10.8,24,24,24s24-10.8,24-24
			c0-2.2-0.4-4.3-1-6.4l43.1-30.1c3.9,2.8,8.7,4.5,13.9,4.5c7.9,0,14.9-3.9,19.3-9.9l36.8,11c0.6,12.7,11.1,22.8,23.9,22.8
			c13.2,0,24-10.8,24-24c0-0.3-0.1-0.6-0.1-0.9l38.2-15.3c4.4,5,10.8,8.2,17.9,8.2c13.2,0,24-10.8,24-24
			C482,255.8,471.2,245,458,245z M138,277c-4.4,0-8-3.6-8-8c0-4.4,3.6-8,8-8s8,3.6,8,8C146,273.4,142.4,277,138,277z M218,341
			c-4.4,0-8-3.6-8-8c0-4.4,3.6-8,8-8s8,3.6,8,8C226,337.4,222.4,341,218,341z M298,285c-4.4,0-8-3.6-8-8c0-4.4,3.6-8,8-8s8,3.6,8,8
			C306,281.4,302.4,285,298,285z M378,309c-4.4,0-8-3.6-8-8c0-4.4,3.6-8,8-8s8,3.6,8,8C386,305.4,382.4,309,378,309z M458,277
			c-4.4,0-8-3.6-8-8c0-4.4,3.6-8,8-8s8,3.6,8,8C466,273.4,462.4,277,458,277z"/>
	</g>
</g>
<g>
	<g>
		<rect x="258" y="357" class="st0" width="56" height="16"/>
	</g>
</g>
<g>
	<g>
		<rect x="242" y="389" class="st0" width="72" height="16"/>
	</g>
</g>
<g>
	<g>
		<rect x="242" y="421" class="st0" width="72" height="16"/>
	</g>
</g>
<g>
	<g>
		<rect x="378" y="485" class="st0" width="16" height="16"/>
	</g>
</g>
<g>
	<g>
		<rect x="346" y="485" class="st0" width="16" height="16"/>
	</g>
</g>
<g>
	<g>
		<rect x="314" y="485" class="st0" width="16" height="16"/>
	</g>
</g>
</svg>
